# xmcd CD database file
#
# Track frame offsets:
#	150
#	9938
#	46403
#	66855
#	89905
#	129525
#	153227
#	190187
#	220287
#
# Disc length: 3103 seconds
#
# Revision: 0
# Processed by: cddbd v1.5.1PL0 Copyright (c) Steve Scherf et al.
# Submitted via: CDex 1.50beta8
#
DISCID=7a0c1d09
DTITLE=Cosmic Sound - Obsession
DYEAR=2003
DGENRE=Jazz
TTITLE0=Gurudev
TTITLE1=Journey to Mafate
TTITLE2=Sumesh is Dancing
TTITLE3=Sudhir Babu
TTITLE4=Obsession
TTITLE5=Swedish Brother
TTITLE6=Jyoti
TTITLE7=Indian Blues
TTITLE8=Sudhir Babu (Radio Version)
EXTD=YEAR: 2003
EXTT0=
EXTT1=
EXTT2=
EXTT3=
EXTT4=
EXTT5=
EXTT6=
EXTT7=
EXTT8=
PLAYORDER=
